<svg xmlns="http://www.w3.org/2000/svg" width="100%" height="100%" fill="none" viewBox="0 0 158 80"><rect width="157" height="79" x=".5" y=".5" fill="#FFFFFF" rx="3.5"></rect><rect width="157" height="79" x=".5" y=".5" stroke="#F2F2F2" rx="3.5"></rect><path fill="#EDEDED" fill-rule="evenodd" d="M118 41H18a1 1 0 0 0-1 1v5a1 1 0 0 0 1 1h100a1 1 0 0 0 1-1v-5a1 1 0 0 0-1-1ZM94 6H64a1 1 0 0 0-1 1v2a1 1 0 0 0 1 1h30a1 1 0 0 0 1-1V7a1 1 0 0 0-1-1ZM64 5a2 2 0 0 0-2 2v2a2 2 0 0 0 2 2h30a2 2 0 0 0 2-2V7a2 2 0 0 0-2-2H64ZM18 40a2 2 0 0 0-2 2v5a2 2 0 0 0 2 2h100a2 2 0 0 0 2-2v-5a2 2 0 0 0-2-2H18Z" clip-rule="evenodd"></path><path fill="#097BED" d="M126 42a2 2 0 0 1 2-2h12a2 2 0 0 1 2 2v5a2 2 0 0 1-2 2h-12a2 2 0 0 1-2-2v-5Z"></path><path fill="#FF6C37" d="M16 62a1 1 0 0 1 1-1h10a1 1 0 1 1 0 2H17a1 1 0 0 1-1-1Z"></path><path fill="#F2F2F2" d="M0 15h158v1H0v-1Z"></path><g fill="#A6A6A6" opacity=".64"><path d="M6 7a1 1 0 0 1 1-1h14a1 1 0 0 1 1 1v2a1 1 0 0 1-1 1H7a1 1 0 0 1-1-1V7ZM26 7a1 1 0 0 1 1-1h14a1 1 0 0 1 1 1v2a1 1 0 0 1-1 1H27a1 1 0 0 1-1-1V7ZM16 29a1 1 0 0 1 1-1h22a1 1 0 0 1 1 1v2a1 1 0 0 1-1 1H17a1 1 0 0 1-1-1v-2ZM16 56a1 1 0 0 1 1-1h10a1 1 0 0 1 1 1v2a1 1 0 0 1-1 1H17a1 1 0 0 1-1-1v-2ZM32 56a1 1 0 0 1 1-1h14a1 1 0 0 1 1 1v2a1 1 0 0 1-1 1H33a1 1 0 0 1-1-1v-2ZM52 56a1 1 0 0 1 1-1h10a1 1 0 0 1 1 1v2a1 1 0 0 1-1 1H53a1 1 0 0 1-1-1v-2ZM136 8a3 3 0 1 1 6 0 3 3 0 0 1-6 0ZM126 8a3 3 0 1 1 6 0 3 3 0 0 1-6 0ZM146 8a3 3 0 1 1 6 0 3 3 0 0 1-6 0Z"></path></g><path fill="#FFFFFF" fill-rule="evenodd" d="M141.5 8a2.5 2.5 0 1 1 0-5 2.5 2.5 0 0 1 0 5Zm0-4a1.5 1.5 0 1 0 0 3 1.5 1.5 0 0 0 0-3Z" clip-rule="evenodd"></path><path fill="#FF6C37" d="M140 5.5a1.5 1.5 0 0 1 3 0 1.5 1.5 0 0 1-3 0Z"></path></svg>