<svg xmlns="http://www.w3.org/2000/svg" viewBox="0 0 24 24">
  <path d="M16.4745 3.40802C17.5491 2.33337 19.2799 2.33337 20.3546 3.40802L20.592 3.64536C21.6667 4.72001 21.6667 6.45084 20.592 7.52549L8.88195 19.2355C8.57746 19.54 8.19777 19.7576 7.78081 19.8657L3.80418 20.8954C3.40598 20.9985 3.00152 20.5941 3.10463 20.1959L4.13427 16.2192C4.24238 15.8023 4.46001 15.4226 4.76451 15.1181L16.4745 3.40802ZM19.0617 4.70091C18.6712 4.31039 18.0578 4.31039 17.6674 4.70091L16.3542 6.01409L17.9859 7.64582L19.299 6.33264C19.6896 5.94211 19.6896 5.32874 19.299 4.93822L19.0617 4.70091ZM16.6929 8.93871L15.0612 7.30698L6.05746 16.3107C5.97051 16.3976 5.90844 16.5064 5.87748 16.6259L5.22689 19.1434L7.42219 18.5744C7.56073 18.5385 7.68541 18.4626 7.78084 18.3555L16.6929 8.93871Z" fill="currentColor"/>
</svg>
