<svg viewBox="0 0 16 16" fill="currentColor" xmlns="http://www.w3.org/2000/svg">
  <path d="M14.8283875 6.73548125h-0.8023375l-2.2325 -2.23250625c-0.1890625 -0.19056875 -0.44664375 -0.29738125 -0.7150875 -0.296525h-2.57265625V2.68903125h1.51741875c0.38936875 0 0.632725 -0.42150625 0.43804375 -0.7587125 -0.09035 -0.1564875 -0.25734375 -0.25289375 -0.43804375 -0.2529H5.976775c-0.38936875 -0.00001875 -0.632725 0.421475 -0.43805625 0.7586875 0.09035625 0.15650625 0.2573375 0.252925 0.43805625 0.252925h1.51741875v1.51741875H3.70064375c-0.55869375 0 -1.0116125 0.4529125 -1.0116125 1.0116125v3.28774375H1.1716125v-1.51741875c0 -0.389375 -0.42150625 -0.63273125 -0.7587125 -0.43804375 -0.15649375 0.09035625 -0.2529 0.25733125 -0.2529 0.43804375v4.04645c0 0.38936875 0.42150625 0.632725 0.7587125 0.43804375 0.15649375 -0.09035625 0.2529 -0.2573375 0.2529 -0.43804375v-1.51741875h1.51741875v1.3081375c-0.00085625 0.26844375 0.10595625 0.526025 0.29653125 0.7150875l2.48540625 2.48540625c0.1890625 0.190575 0.4466375 0.2973875 0.71508125 0.296525h4.8924125c0.26844375 0.0008625 0.526025 -0.10595 0.7150875 -0.296525l2.2325 -2.23250625h0.8023375c0.5587 0 1.0116125 -0.4529125 1.0116125 -1.0116125v-3.0348375c0 -0.5587 -0.4529125 -1.0116125 -1.0116125 -1.0116125Zm0 4.04645h-1.0116125c-0.1341875 -0.00010625 -0.26291875 0.05311875 -0.35785625 0.14795l-2.38045625 2.38108125H6.18605l-2.48540625 -2.48540625V5.2180625h7.37781875l2.38045625 2.38108125c0.0949375 0.0948375 0.22366875 0.14805625 0.35785625 0.14795h1.0116125Z" stroke-width="0.0625"></path>
</svg>