<svg xmlns="http://www.w3.org/2000/svg" viewBox="0 0 24 24">
  <path d="M12 4C12.2652 4 12.5196 4.10536 12.7071 4.29289L16.7071 8.29289C17.0976 8.68342 17.0976 9.31658 16.7071 9.70711C16.3166 10.0976 15.6834 10.0976 15.2929 9.70711L13 7.41421V15C13 15.5523 12.5523 16 12 16C11.4477 16 11 15.5523 11 15V7.41421L8.70711 9.70711C8.31658 10.0976 7.68342 10.0976 7.29289 9.70711C6.90237 9.31658 6.90237 8.68342 7.29289 8.29289L11.2929 4.29289C11.4804 4.10536 11.7348 4 12 4ZM5 17C5.55228 17 6 17.4477 6 18V19H18V18C18 17.4477 18.4477 17 19 17C19.5523 17 20 17.4477 20 18V19C20 20.1046 19.1046 21 18 21H6C4.89543 21 4 20.1046 4 19V18C4 17.4477 4.44772 17 5 17Z" fill="currentColor"/>
</svg>
