<svg xmlns="http://www.w3.org/2000/svg" viewBox="0 0 24 24">
  <path d="M4 4C2.89543 4 2 4.89543 2 6V18C2 19.1046 2.89543 20 4 20H20C21.1046 20 22 19.1046 22 18V8C22 6.89543 21.1046 6 20 6H12.4142C12.149 6 11.8946 5.89464 11.7071 5.70711L10.2929 4.29289C10.1054 4.10536 9.851 4 9.58579 4H4ZM4 6H9.58579L10.5858 7C11.1479 7.56206 11.9093 7.87868 12.7071 7.87868H20C20.5523 7.87868 21 8.32639 21 8.87868V18C21 18.5523 20.5523 19 20 19H4C3.44772 19 3 18.5523 3 18V6C3 5.44772 3.44772 5 4 5V6Z" fill="currentColor"/>
</svg>
