<svg xmlns="http://www.w3.org/2000/svg" viewBox="0 0 24 24">
  <path d="M12 4C12.5523 4 13 4.44772 13 5V12.5858L15.2929 10.2929C15.6834 9.90237 16.3166 9.90237 16.7071 10.2929C17.0976 10.6834 17.0976 11.3166 16.7071 11.7071L12.7071 15.7071C12.3166 16.0976 11.6834 16.0976 11.2929 15.7071L7.29289 11.7071C6.90237 11.3166 6.90237 10.6834 7.29289 10.2929C7.68342 9.90237 8.31658 9.90237 8.70711 10.2929L11 12.5858V5C11 4.44772 11.4477 4 12 4ZM5 17C5.55228 17 6 17.4477 6 18V19H18V18C18 17.4477 18.4477 17 19 17C19.5523 17 20 17.4477 20 18V19C20 20.1046 19.1046 21 18 21H6C4.89543 21 4 20.1046 4 19V18C4 17.4477 4.44772 17 5 17Z" fill="currentColor"/>
</svg>
