<svg viewBox="0 0 24 24" fill="none"><path fill="currentColor" d="M5.5 16A2.5 2.5 0 0 0 8 18.5v1A2.5 2.5 0 0 0 5.5 22h-1A2.5 2.5 0 0 0 2 19.5v-1A2.5 2.5 0 0 0 4.5 16h1Zm5.178-10.793c.325-1.368 2.319-1.37 2.644 0l.027.142.042.255a6.26 6.26 0 0 0 5.26 5.046c1.553.224 1.561 2.473 0 2.699a6.26 6.26 0 0 0-5.302 5.301c-.225 1.563-2.475 1.554-2.699 0a6.26 6.26 0 0 0-5.3-5.3c-1.56-.225-1.557-2.474 0-2.699l.255-.042a6.26 6.26 0 0 0 5.046-5.26l.028-.141ZM19.5 2A2.5 2.5 0 0 0 22 4.5v1A2.5 2.5 0 0 0 19.5 8h-1A2.5 2.5 0 0 0 16 5.5v-1A2.5 2.5 0 0 0 18.5 2h1Z"></path></svg>