<svg version="1.1" xmlns="http://www.w3.org/2000/svg" style="display: block;" viewBox="0 0 2048 2048" width="512" height="512" preserveAspectRatio="none">
<path transform="translate(0,0)" fill="rgb(250,101,39)" d="M 990.011 107.834 C 1496.44 88.8547 1922.35 484.048 1941.26 990.479 C 1960.17 1496.91 1564.92 1922.77 1058.48 1941.61 C 552.148 1960.44 126.394 1565.28 107.488 1058.95 C 88.5816 552.619 483.681 126.81 990.011 107.834 z M 595.436 1629.21 C 630.797 1594.87 672.722 1565.4 724.273 1569.22 C 740.843 1569.05 757.753 1573.53 770.971 1560.38 C 786.508 1544.93 781.353 1520.22 766.671 1506.18 C 751.446 1491.68 730.559 1486.14 716.569 1470.11 C 694.316 1444.61 700.377 1399.28 663.584 1386.73 C 656.941 1384.46 649.78 1381.97 642.69 1383.2 C 612.07 1389.85 605.484 1408.81 599.511 1436.46 C 587.418 1492.43 559.433 1542.94 519.248 1583.64 C 507.397 1596.88 488.114 1612.48 492.757 1632.45 C 498.494 1657.12 530.94 1669.08 553.406 1664.91 C 568.208 1662.17 584.522 1639.64 595.436 1629.21 z M 867.497 1341.07 C 878.58 1344.24 884.445 1331.46 888.969 1323.26 C 901.759 1300.08 905.074 1275.09 919.042 1252.38 L 992.03 1133.82 C 1010.17 1104.81 1027.41 1072.88 1052.11 1049.12 C 1068.14 1033.7 1094.62 1017.61 1098.32 993.944 C 1103.22 962.543 1094.1 937.877 1059.69 934.188 C 998.642 948.309 1015.38 978.111 995.254 1021.99 C 964.734 1088.51 926.463 1153.8 884.55 1213.8 C 879.405 1221.13 871.375 1227.81 865.638 1234.74 C 853.87 1248.01 840.135 1262.18 829.494 1276.17 C 825.726 1281.13 823.929 1292.82 825.718 1299.45 C 829.937 1315.08 851.35 1332.28 864.982 1339.73 C 865.817 1340.18 866.655 1340.63 867.497 1341.07 z M 728.317 1243.6 L 730.703 1255.01 C 749.388 1267.06 763.346 1269.03 784.395 1275.31 C 788.094 1276.92 797.146 1280.9 800.564 1278.39 C 821.469 1263.05 817.947 1222.39 825.765 1200.93 C 835.293 1174.76 842.258 1156.81 851.848 1131.71 C 874.457 1075.4 891.233 1011.93 929.342 963.665 C 944.909 943.95 968.652 925.139 956.013 896.621 C 949.059 880.928 924.334 873.526 908.45 874.345 C 856.339 882.955 858.925 916.218 852.886 958.297 C 844.162 1019.08 821.78 1078.09 799.012 1134.77 C 785.981 1166.81 759.423 1197.2 738.622 1224.66 C 733.002 1232.08 730.979 1234.41 728.317 1243.6 z M 936.719 1383.62 C 940.665 1384.1 946.624 1383.34 949.531 1380.41 C 968.772 1361 982.069 1336.4 998.685 1314.85 C 1008.81 1301.72 1020.98 1290.33 1031.31 1277.39 C 1068.72 1231.95 1104.27 1183.98 1146.19 1142.58 C 1168.95 1119.75 1204.84 1104.87 1205.98 1068.02 C 1206.35 1056.08 1204.16 1044.45 1192.18 1039.05 C 1183.65 1035.2 1179.13 1033.44 1169.45 1035.26 C 1157.01 1037.54 1134.27 1044.72 1128.31 1055.68 C 1117.13 1076.24 1111.55 1097.52 1097.48 1117.75 C 1060.19 1171.33 1019.07 1221.9 975.414 1270.38 C 969.963 1276.45 965.387 1281.8 958.698 1286.63 C 946.304 1297.24 897.605 1328.24 897.887 1344.37 C 898.01 1351.38 929.246 1378.37 936.719 1383.62 z M 1016.06 1445.94 C 1022.53 1446.22 1026.33 1443.16 1030.88 1438.74 C 1049.25 1420.93 1061.14 1396.78 1080.46 1379.77 C 1096.46 1365.68 1113.26 1352.39 1129.53 1338.56 C 1159.55 1313.04 1185.3 1283.32 1214.79 1257.3 C 1229.87 1243.98 1249.21 1236.08 1263.45 1221.95 C 1272.83 1212.33 1281.47 1199.64 1282.83 1186.02 C 1274.81 1170 1257.44 1149.79 1237.84 1151.13 C 1203.57 1160.09 1197.27 1193.62 1178.66 1219.51 C 1157.49 1248.94 1133.02 1275.44 1105.96 1299.54 C 1088.93 1315.22 1078.2 1326.46 1057.5 1339.74 C 1035.52 1354.09 1011.07 1365.35 988.582 1378.62 C 979.326 1384.08 964.784 1394.21 969.658 1406.41 C 978.24 1427.89 995.556 1439.24 1016.06 1445.94 z M 608.493 1273.08 C 625.017 1285.68 653.915 1286.51 671.998 1277.03 C 686.852 1270.69 710.875 1257.12 700.449 1237.83 C 691.61 1221.47 680.226 1206.19 673.239 1188.75 C 663.057 1160.21 656.36 1117.44 656.22 1086.96 C 656.814 1074.2 659.365 1060.69 662.832 1048.47 C 666.223 1036.52 680.074 1021.21 674.169 1008.33 C 666.695 992.027 638.28 981.176 621.354 985.345 C 601.109 987.909 572.408 1001.76 579.738 1025.29 C 591.725 1063.78 602.403 1099.45 606.416 1139.98 C 608.959 1166.02 610.104 1192.17 609.846 1218.33 C 609.54 1235.94 605.136 1256.93 608.493 1273.08 z M 1061.43 900.7 C 1078.67 908.575 1102.27 917.795 1116.66 928.888 C 1127.93 936.785 1144.64 935.788 1150.95 923.136 C 1158.28 908.452 1161.57 888.523 1167.8 872.685 C 1183.66 832.351 1203.61 788.942 1230.42 754.72 C 1246.9 733.689 1258.96 734.703 1269.93 707.137 C 1264.31 677.52 1246.13 660.626 1215.13 662.3 C 1183.35 666.738 1186.17 694 1176.15 718.027 C 1162.37 751.444 1144.8 784.343 1124.02 813.93 C 1106.64 838.677 1080.86 857.153 1061.8 880.398 C 1056.01 887.458 1058.27 893.398 1061.43 900.7 z M 973.12 873.885 C 995.797 875.396 997.989 862.463 1002.98 843.518 C 1008.43 822.113 1013.79 800.189 1022.74 779.863 C 1032.26 758.247 1044.79 738.634 1058.63 719.424 C 1072.67 699.929 1118.23 668.638 1095.45 642.579 C 1086.55 632.403 1057.72 622.174 1044.09 622.003 C 1040.85 621.988 1037.6 622.045 1034.36 622.174 C 1010.78 634.093 1015.17 648.925 1006.66 671.607 C 992.532 709.293 974.37 746.433 949.101 777.965 C 937.287 792.793 920.687 804.34 908.984 818.944 C 901.385 828.426 900.9 843.666 914.132 849.036 C 933.888 857.055 953.444 865.339 973.12 873.885 z M 1234.76 1028.88 C 1252.91 1030.78 1253.32 1017.14 1256.86 1003.29 C 1263.96 975.437 1274.54 947.804 1292.14 924.826 C 1303.95 909.408 1317.48 897.288 1330.77 883.464 C 1348 865.533 1399.46 840.607 1368.41 812.206 C 1356.76 801.544 1336.86 786.05 1320.22 786.999 C 1311.12 789.806 1301.38 794.813 1297.85 804.551 C 1275.74 865.519 1243.95 919.046 1194.82 962.023 C 1174.74 979.588 1161.41 997.456 1193.05 1013.21 C 1206.81 1020.05 1220.49 1023.72 1234.76 1028.88 z M 715.596 1381.15 C 723.067 1376.16 729.815 1370.68 736.798 1365.78 C 758.422 1350.6 769.389 1343.8 778.804 1318.56 C 768.206 1286.77 741.181 1286.38 712.42 1289.56 C 589.05 1299.11 693.337 1391.56 715.596 1381.15 z M 724.136 576.834 C 717.816 571.373 713.105 569.899 705.035 568.212 C 700.097 569.051 695 570.531 692.263 575.1 C 685.441 586.689 683.549 601.551 680.83 614.705 C 676.152 637.333 664.8 658.76 653.338 678.633 C 634.09 712.01 627.604 716.28 667.39 725.851 C 691.073 728.391 703.919 732.806 709.742 704.426 C 718.628 661.11 741.883 621.653 724.136 576.834 z M 1455.53 348.147 C 1431.69 356.856 1391.48 400.36 1375.33 421.2 C 1366.03 433.207 1407.5 447.971 1415.78 454.482 C 1421.54 460.175 1424.03 461.77 1430.9 466.257 C 1441.58 450.533 1448.9 433.444 1459.59 417.584 C 1468.48 404.388 1479.74 394.452 1487.8 380.952 C 1485.16 360.362 1478.71 346.244 1455.53 348.147 z M 1410.43 793.058 C 1419.04 783.635 1423.41 764.431 1428.97 751.566 C 1433.5 741.365 1438.78 731.514 1444.77 722.096 C 1459.37 699.4 1477.91 680.694 1496.95 661.824 C 1501.7 657.113 1505.14 652.589 1508.34 646.7 C 1503.17 629.449 1478.81 607.524 1461.18 604.172 C 1439.35 608.432 1441.58 609.225 1434.63 630.142 C 1422.66 666.153 1394.91 698.061 1366.08 722.14 C 1358.54 728.44 1344.24 735.599 1338.74 743.136 C 1328.97 756.508 1343.14 765.684 1353.7 771.422 C 1365.73 777.956 1376.73 786.552 1388.23 794.088 C 1397.45 797.233 1401.38 796.719 1410.43 793.058 z M 1583.5 508.607 C 1579.03 492.705 1574.28 487.044 1556.96 486.27 C 1552.99 487.75 1547.53 489.748 1544.91 493.142 C 1533.03 508.531 1526.47 522.082 1513.66 537.495 C 1501.64 551.967 1481.69 565.115 1472.88 578.761 C 1479.3 587.524 1497.79 599.414 1507.51 607.315 C 1512.87 611.789 1513.46 612.213 1519.98 615.165 L 1524.46 617.193 C 1533.03 603.58 1536.99 586.646 1546.67 571.141 C 1555.51 556.972 1579.93 523.32 1583.5 508.607 z M 1206.87 449.314 C 1215.65 455.516 1219.26 455.235 1224.88 445.803 C 1233.51 431.302 1239.72 415.455 1247.08 400.22 C 1254.06 385.765 1264.88 371.431 1268.8 356.05 C 1260.86 339.779 1255.08 337.102 1237 338.12 C 1215.54 348.331 1203.9 381.918 1188.5 399.624 C 1184.76 403.925 1166.84 421.014 1170.57 425.163 C 1180.84 436.566 1195.04 437.752 1206.87 449.314 z M 951.005 1478.23 C 936.901 1481.17 907.034 1486.48 900.829 1499.51 C 885.011 1532.72 897.37 1539.48 925.149 1539.03 C 944.516 1537.07 957.65 1528.11 969.939 1513.42 C 979.297 1502.22 982.415 1492.96 974.074 1480.73 C 964.517 1477.63 961.114 1477.86 951.005 1478.23 z M 1598.94 723.492 C 1576.21 724.276 1569.61 745.041 1555.52 760.548 C 1545.99 771.03 1532.88 782.806 1526.58 795.024 C 1528.01 800.387 1547.86 808.376 1553.48 812.379 C 1558.92 815.948 1564.44 819.458 1569.68 823.308 C 1577 812.526 1582.97 799.983 1590.1 788.507 C 1596.97 777.462 1610.26 762.966 1615.99 752.712 C 1616.32 741.97 1617.32 739.128 1612.15 729.87 L 1611.27 728.275 C 1606.65 725.916 1604.1 724.208 1598.94 723.492 z M 876.195 1517.31 C 862.825 1492.4 836.295 1472.2 807.516 1470.41 C 799.984 1472.43 793.829 1473.81 789.807 1481.27 C 775.994 1506.86 808.785 1524.84 827.612 1533.82 C 835.849 1537.75 843.96 1541.67 852.225 1545.47 L 853.195 1545.92 C 860.733 1543.96 862.576 1543.59 869.559 1539.7 C 874.33 1530.01 875.544 1528.3 876.195 1517.31 z M 656.749 953.458 C 670.66 953.53 682.296 955.286 681.86 936.721 C 681.599 925.586 677.126 914.627 674.855 903.817 C 669.867 878.314 669.741 851.602 676.641 826.619 C 679.059 817.818 682.248 809.247 686.172 801.006 C 690.575 791.842 701.294 773.231 701.76 764.04 C 703.024 739.086 661.904 739.591 647.108 740.307 C 632.873 742.378 627.348 744.536 620.045 757.653 C 619.324 791.729 623.441 819.067 616.875 853.836 C 610.916 885.391 598.364 911.882 591.76 942.827 C 591.017 946.309 591.166 949.556 592.664 952.821 C 601.158 959.714 644.456 954.158 656.749 953.458 z M 1284.72 671.16 C 1313.06 657.264 1310.25 636.652 1323.04 609.976 C 1331.83 591.647 1341.42 574.821 1354.1 558.899 C 1367.89 540.544 1385.71 527.381 1401.19 510.826 C 1405.53 506.185 1407.89 500.912 1410.45 495.179 C 1403.42 476.823 1373.17 454.611 1353.46 456.248 C 1346 457.453 1339.13 461.015 1336.7 468.629 C 1321.28 516.927 1288.33 563.081 1251.06 597.226 C 1242.51 605.062 1225.24 614.129 1227.94 627.519 C 1234.79 638.227 1249.55 644.467 1259.52 652.078 C 1268.01 658.555 1275.82 665.288 1284.72 671.16 z M 1404.65 929.967 C 1416.04 950.371 1434.77 948.508 1450.57 971.025 L 1458.23 977.285 C 1473.31 967.459 1478.92 948.341 1488.1 933.24 C 1501.79 910.707 1516.72 890.499 1535.19 871.629 C 1543.48 863.158 1556.88 849.878 1545.64 838.864 C 1536.76 830.162 1524.3 822.168 1511.93 820.278 C 1489.6 824.535 1490.47 837.099 1479.4 854.597 C 1467.35 873.655 1452.16 888.506 1433.84 901.553 C 1421.06 910.653 1411.87 915.451 1404.65 929.967 z M 880.487 1380.15 C 853.316 1388.14 805.527 1448.58 846.327 1470.1 C 864.561 1479.72 887.806 1475.15 907.625 1473.3 C 932.16 1463.41 945.974 1472.42 959.792 1444.22 C 955.49 1424.79 939.58 1419.21 926.312 1407.19 C 919.285 1400.83 914.193 1391.6 905.855 1386.58 C 899.003 1382.16 888.561 1379.59 880.487 1380.15 z M 803.805 1336.04 C 786.322 1341.09 779.962 1355.62 766.605 1365.77 C 746.753 1380.85 713.092 1397.41 724.075 1428.89 C 732.107 1451.92 746.632 1464.42 770.399 1470.42 C 794.217 1466.73 805.141 1425.59 823.251 1410.12 C 831.852 1402.78 846.715 1385.1 851.025 1374.95 C 844.006 1357.15 838.711 1348.05 819.995 1339.26 C 814.72 1336.78 809.617 1335.52 803.805 1336.04 z M 1157.15 449.538 C 1142.01 450.5 1136.89 452.638 1132 467.972 C 1120.96 502.628 1097.08 533.702 1069.6 557.069 C 1057.69 567.194 1035.57 582.582 1059.35 595.545 C 1072.72 602.831 1085.53 607.06 1097.73 616.594 L 1098.97 617.557 L 1099.72 618.145 C 1131.61 632.939 1131.38 597.797 1141.65 576.952 C 1157.04 545.689 1178.27 518.563 1200.67 492.163 C 1215.1 474.766 1172.8 451.167 1157.15 449.538 z M 1388.9 962.303 C 1368.04 967.423 1367.98 984.102 1358.77 1000.52 C 1341.94 1030.49 1320.22 1057.19 1292.62 1077.87 C 1278.85 1088.19 1261.21 1094.34 1253.4 1110.08 C 1254.73 1112.62 1257.83 1118.42 1259.71 1120.12 C 1270.9 1130.29 1293.24 1153.95 1305.41 1160.4 C 1309.09 1161.88 1313.76 1163.8 1317.54 1161.58 C 1331.55 1153.33 1338.02 1124.88 1345.73 1109.47 C 1359.24 1082.44 1377.49 1065.21 1399.52 1045.5 C 1415.67 1031.06 1427.78 1027.42 1436.71 1007.81 C 1431.19 989.718 1409.79 961.586 1388.9 962.303 z M 803.943 1554.3 C 794.345 1556.73 787.045 1561.61 782.354 1570.42 C 774.23 1585.96 769.626 1603.04 758.402 1616.99 C 747.769 1630.21 736.779 1642.21 724.84 1654.45 C 704.575 1675.23 663.893 1702.42 670.497 1735.83 C 675.392 1760.6 704.42 1764.12 722.534 1749.84 C 739.567 1736.15 762.84 1703.72 777.677 1686.16 C 792.106 1669.09 805.325 1658.15 821.178 1643.12 C 838.426 1626.77 861.003 1616.18 868.023 1594.16 C 866.859 1590.79 865.09 1585.41 862.778 1582.85 C 850.516 1569.26 822.074 1553.78 803.943 1554.3 z"/>
<path transform="translate(0,0)" fill="rgb(250,101,39)" fill-opacity="0.14902" d="M 1900.28 738.418 C 1902.23 739.581 1902.99 743.743 1903.9 746.477 L 1902.7 746.707 L 1901.99 745.094 C 1900.76 742.311 1899.95 741.492 1900.28 738.418 z"/>
</svg>